HIERARCHY
ROOT Hips
{
	OFFSET 0.000000 0.000000 0.000000
	CHANNELS 6 Xposition Yposition Zposition Yrotation Xrotation Zrotation
	JOINT Chest
	{
		OFFSET 0.000000 -0.009281 11.569106
		CHANNELS 3 Yrotation Xrotation Zrotation
		JOINT Chest2
		{
			OFFSET -0.000000 0.016865 9.269641
			CHANNELS 3 Yrotation Xrotation Zrotation
			JOINT Chest3
			{
				OFFSET -0.000000 0.000001 8.374491
				CHANNELS 3 Yrotation Xrotation Zrotation
				JOINT Chest4
				{
					OFFSET -0.000000 0.000001 8.374493
					CHANNELS 3 Yrotation Xrotation Zrotation
					JOINT Neck
					{
						OFFSET -0.000000 0.000002 12.152554
						CHANNELS 3 Yrotation Xrotation Zrotation
						JOINT Head
						{
							OFFSET -0.000000 0.040101 7.802319
							CHANNELS 3 Yrotation Xrotation Zrotation
							End Site
							{
								OFFSET -0.000000 0.020947 14.853096
							}
						}
					}
					JOINT RightCollar
					{
						OFFSET 2.894404 0.000001 6.791374
						CHANNELS 3 Yrotation Xrotation Zrotation
						JOINT RightShoulder
						{
							OFFSET 13.574684 0.000001 0.000000
							CHANNELS 3 Yrotation Xrotation Zrotation
							JOINT RightElbow
							{
								OFFSET 23.923903 0.000002 0.000000
								CHANNELS 3 Yrotation Xrotation Zrotation
								JOINT RightWrist
								{
									OFFSET 19.846718 0.012767 0.000000
									CHANNELS 3 Yrotation Xrotation Zrotation
									End Site
									{
										OFFSET 14.973145 0.000001 0.000000
									}
								}
							}
						}
					}
					JOINT LeftCollar
					{
						OFFSET -2.894404 0.000001 6.791374
						CHANNELS 3 Yrotation Xrotation Zrotation
						JOINT LeftShoulder
						{
							OFFSET -13.574684 -0.000001 0.000000
							CHANNELS 3 Yrotation Xrotation Zrotation
							JOINT LeftElbow
							{
								OFFSET -23.923903 -0.000002 0.000000
								CHANNELS 3 Yrotation Xrotation Zrotation
								JOINT LeftWrist
								{
									OFFSET -19.846718 0.012763 0.000000
									CHANNELS 3 Yrotation Xrotation Zrotation
									End Site
									{
										OFFSET -14.973145 -0.000001 0.000000
									}
								}
							}
						}
					}
				}
			}
		}
	}
	JOINT RightHip
	{
		OFFSET 9.469263 0.004643 0.045487
		CHANNELS 3 Yrotation Xrotation Zrotation
		JOINT RightKnee
		{
			OFFSET 0.000000 0.002661 -40.478676
			CHANNELS 3 Yrotation Xrotation Zrotation
			JOINT RightAnkle
			{
				OFFSET 0.000000 0.049106 -35.224068
				CHANNELS 3 Yrotation Xrotation Zrotation
				JOINT RightToe
				{
					OFFSET -0.000001 12.539529 -6.151390
					CHANNELS 3 Yrotation Xrotation Zrotation
					End Site
					{
						OFFSET -0.000001 5.044994 -1.291870
					}
				}
			}
		}
	}
	JOINT LeftHip
	{
		OFFSET -9.469263 0.004641 0.045487
		CHANNELS 3 Yrotation Xrotation Zrotation
		JOINT LeftKnee
		{
			OFFSET 0.000000 0.002661 -40.478676
			CHANNELS 3 Yrotation Xrotation Zrotation
			JOINT LeftAnkle
			{
				OFFSET 0.000000 0.049106 -35.224068
				CHANNELS 3 Yrotation Xrotation Zrotation
				JOINT LeftToe
				{
					OFFSET -0.000001 12.539529 -6.151390
					CHANNELS 3 Yrotation Xrotation Zrotation
					End Site
					{
						OFFSET -0.000001 5.044994 -1.291870
					}
				}
			}
		}
	}
}
MOTION
Frames: 15
Frame Time: 0.016667
9.640800 6.921122 83.103317 -5.051402 -1.553347 -107.612588 -0.723930 -3.907504 2.389216 -0.307976 -1.737487 1.071798 -0.307976 -1.737487 1.071796 -0.227918 -1.303659 0.802910 0.276686 -24.144608 3.414637 1.354692 -8.729100 6.197948 10.614044 2.020425 -6.087553 57.775771 30.792596 22.855317 34.681566 20.052155 36.865307 27.781854 16.688614 -15.287259 -9.349555 -3.567245 -6.738724 -59.756253 40.082695 -26.152817 -36.273895 35.221978 -42.123300 12.446049 67.894860 -19.550044 -0.743628 -4.662416 -0.941717 2.010161 -5.146349 -9.453616 -1.065202 4.064001 1.603088 0.065187 0.031339 -0.021865 -0.695311 -6.934386 3.137577 0.590986 -1.855086 -0.044426 -0.704599 3.900538 0.243483 -0.024858 -0.063190 0.011164 
9.618761 6.956124 83.106812 -5.039189 -1.544898 -107.566313 -0.749033 -3.929326 2.389446 -0.318965 -1.747395 1.067477 -0.318965 -1.747395 1.067477 -0.236153 -1.311109 0.799633 0.261230 -24.082424 3.639915 1.386202 -8.622038 6.599831 10.606610 2.107473 -6.104618 57.569943 30.943062 22.773715 35.058313 20.086058 37.077781 27.503198 16.903724 -15.126579 -9.267479 -3.608478 -6.734705 -59.448430 39.776577 -25.919403 -36.055472 34.420615 -42.333745 11.616956 67.334976 -20.462075 -0.771111 -4.588140 -0.866845 2.032718 -5.228089 -9.516630 -1.074268 4.067297 1.557060 0.068167 0.032715 -0.019740 -0.701976 -6.899497 3.173819 0.573653 -1.840768 -0.047056 -0.707993 3.870112 0.177752 0.002939 -0.052799 0.012044 
9.610329 6.987088 83.110977 -5.028772 -1.534807 -107.507191 -0.773059 -3.935717 2.392632 -0.329517 -1.749012 1.065813 -0.329517 -1.749012 1.065815 -0.244069 -1.312339 0.798355 0.276242 -24.042365 3.781533 1.450553 -8.554612 6.858815 10.571767 2.214618 -6.143022 57.294581 31.081380 22.683094 35.400112 20.155847 37.303864 27.155912 17.223606 -14.921238 -9.219242 -3.606002 -6.750496 -59.176855 39.508768 -25.785955 -35.961110 33.675421 -42.643156 10.603676 66.625032 -21.419736 -0.792423 -4.571005 -0.848680 2.041656 -5.222093 -9.569176 -1.075320 4.045167 1.533331 0.064712 0.028201 -0.017664 -0.709388 -6.878540 3.199069 0.558334 -1.814737 -0.037498 -0.719388 3.835882 0.099085 0.028866 -0.041749 0.012395 
9.612817 7.008972 83.115593 -5.018560 -1.522488 -107.425543 -0.796474 -3.925610 2.388231 -0.339312 -1.743462 1.062996 -0.339311 -1.743462 1.062995 -0.251431 -1.308193 0.796217 0.308967 -24.022149 3.850214 1.527480 -8.522062 6.990897 10.530684 2.316530 -6.196587 56.937553 31.169992 22.604533 35.715565 20.251572 37.557267 26.775195 17.480838 -14.748967 -9.193165 -3.584318 -6.769736 -58.975555 39.282884 -25.798489 -35.904966 32.939147 -42.968003 9.845780 65.918279 -22.149250 -0.805109 -4.604752 -0.891036 2.030728 -5.137726 -9.607512 -1.061641 4.001924 1.544607 0.054579 0.018461 -0.015030 -0.720226 -6.866594 3.185577 0.552721 -1.784000 -0.028163 -0.738713 3.801639 0.035259 0.051387 -0.030027 0.012477 
9.623729 7.028266 83.120514 -5.003130 -1.509242 -107.330037 -0.819921 -3.908881 2.375356 -0.347585 -1.735751 1.057591 -0.347585 -1.735750 1.057596 -0.257665 -1.302419 0.792149 0.352506 -24.009882 3.853773 1.607090 -8.502059 7.008616 10.466952 2.465551 -6.264164 56.501268 31.212284 22.476392 36.047495 20.305379 37.836745 26.319142 17.621760 -14.643309 -9.162471 -3.536438 -6.793014 -58.816576 39.078562 -25.882573 -35.988297 32.206002 -43.385642 9.373434 65.348723 -22.734775 -0.815405 -4.663804 -0.972022 2.021042 -5.007945 -9.641569 -1.041896 3.945492 1.569725 0.038150 0.009686 -0.012982 -0.727040 -6.848074 3.141300 0.548182 -1.764994 -0.028849 -0.760999 3.772894 -0.003308 0.070404 -0.017531 0.010151 
9.637016 7.044959 83.125549 -4.984438 -1.495718 -107.220774 -0.840548 -3.889369 2.351486 -0.354118 -1.727879 1.047145 -0.354118 -1.727879 1.047145 -0.262608 -1.296521 0.784297 0.409695 -24.000916 3.793452 1.694990 -8.486117 6.915019 10.388089 2.616029 -6.316197 56.021819 31.298273 22.317319 36.413094 20.269631 38.141170 25.770988 17.703876 -14.563633 -9.127557 -3.483076 -6.844826 -58.635589 38.821528 -25.956402 -36.296530 31.564835 -44.037433 9.126850 64.833125 -23.212917 -0.821519 -4.727421 -1.068579 2.006312 -4.871003 -9.698577 -1.010233 3.890421 1.613994 0.019275 0.002502 -0.011726 -0.732175 -6.831398 3.081639 0.546623 -1.735896 -0.025367 -0.791085 3.733258 -0.049030 0.089452 -0.003809 0.008687 
9.651241 7.058403 83.130600 -4.961069 -1.481334 -107.104886 -0.860006 -3.864793 2.316951 -0.360165 -1.717970 1.030880 -0.360165 -1.717970 1.030881 -0.267206 -1.289091 0.772090 0.484104 -23.995928 3.668927 1.797450 -8.475595 6.710414 10.316039 2.739883 -6.340772 55.519770 31.461446 22.151751 36.788256 20.172197 38.441131 25.191741 17.848451 -14.453143 -9.088811 -3.431697 -6.893086 -58.437398 38.457414 -26.002556 -36.681500 30.968682 -44.859426 9.275187 64.149587 -23.377707 -0.820627 -4.784329 -1.153126 1.985752 -4.741377 -9.784135 -0.970095 3.840597 1.665853 0.000161 -0.001746 -0.009921 -0.731667 -6.814780 3.041711 0.544586 -1.697391 -0.022322 -0.832916 3.685257 -0.121094 0.110041 0.008814 0.007846 
9.664931 7.066474 83.135765 -4.934459 -1.463274 -106.977974 -0.880468 -3.834602 2.275581 -0.367750 -1.705718 1.011018 -0.367750 -1.705718 1.011019 -0.272971 -1.279902 0.757181 0.577868 -23.991477 3.469373 1.915726 -8.463766 6.375978 10.249754 2.906566 -6.377080 55.002397 31.606454 21.935421 37.150229 20.080283 38.787036 24.640695 17.968360 -14.360063 -9.045036 -3.402845 -6.961272 -58.257368 38.084226 -26.045676 -36.809775 30.217911 -45.557949 9.611458 63.234759 -23.372805 -0.816821 -4.843729 -1.235290 1.963498 -4.602349 -9.875129 -0.929327 3.787615 1.717423 -0.017529 -0.003306 -0.008198 -0.726678 -6.805871 3.024331 0.538841 -1.631767 -0.054728 -0.881274 3.618939 -0.192602 0.130546 0.020364 0.008344 
9.681171 7.068893 83.140678 -4.904838 -1.443757 -106.837682 -0.899996 -3.799809 2.231704 -0.375394 -1.690668 0.990426 -0.375394 -1.690668 0.990427 -0.278785 -1.268614 0.741726 0.697735 -23.988569 3.183131 2.058904 -8.452386 5.892481 10.182840 3.100164 -6.422329 54.504531 31.748697 21.664259 37.403998 19.985490 39.164561 24.359134 18.041784 -14.263242 -9.000937 -3.372824 -7.026231 -58.102978 37.721817 -26.088674 -36.528012 29.211295 -45.903663 9.658344 62.169208 -23.603599 -0.803805 -4.916526 -1.319403 1.936297 -4.439410 -9.964848 -0.889947 3.729961 1.733394 -0.033783 -0.005273 -0.007192 -0.714348 -6.807384 3.010688 0.529330 -1.541099 -0.121953 -0.934909 3.540227 -0.251769 0.149907 0.029529 0.009632 
9.701005 7.067976 83.144493 -4.871597 -1.420815 -106.678238 -0.911873 -3.759337 2.180920 -0.379149 -1.672686 0.967402 -0.379149 -1.672686 0.967401 -0.281695 -1.255119 0.724461 0.839056 -23.992484 2.805001 2.217073 -8.450882 5.249271 10.108871 3.250070 -6.429736 54.062942 32.018469 21.392713 37.644185 19.964131 39.566722 24.375820 18.003590 -14.201588 -8.977041 -3.277539 -7.047846 -57.934846 37.293724 -26.055881 -35.926488 27.959060 -45.916855 9.322358 60.999743 -23.989772 -0.801073 -4.998353 -1.436840 1.924096 -4.260897 -10.055523 -0.850840 3.671858 1.787542 -0.051155 -0.007288 -0.008069 -0.701268 -6.805854 2.966158 0.519400 -1.449780 -0.189359 -0.986935 3.460720 -0.301093 0.164119 0.037152 0.010743 
9.722980 7.067561 83.146866 -4.836096 -1.396718 -106.498263 -0.920136 -3.717753 2.131478 -0.380935 -1.654302 0.945834 -0.380935 -1.654302 0.945834 -0.283121 -1.241321 0.708295 1.007573 -24.000711 2.324793 2.398060 -8.454751 4.429593 10.031828 3.366933 -6.449271 53.733529 32.378276 21.144534 37.924721 20.080799 40.014400 24.535342 18.003911 -14.146434 -8.970665 -3.120184 -7.087389 -57.684923 36.820614 -25.883186 -35.176939 26.565408 -45.676439 8.411709 59.745044 -24.356076 -0.795178 -5.084958 -1.569298 1.912184 -4.077579 -10.159063 -0.810030 3.618587 1.846313 -0.066847 -0.010337 -0.009166 -0.691956 -6.795698 2.882609 0.519607 -1.369722 -0.242702 -1.038048 3.387618 -0.345117 0.171159 0.041463 0.010741 
9.744055 7.069801 83.147507 -4.803175 -1.379452 -106.303159 -0.913514 -3.674284 2.077299 -0.375287 -1.635568 0.922083 -0.375286 -1.635568 0.922085 -0.278978 -1.227247 0.690511 1.188244 -24.019719 1.742663 2.574727 -8.475738 3.429784 9.946210 3.461558 -6.459178 53.496685 32.814756 20.925157 38.219386 20.378399 40.483470 24.699137 18.095353 -14.052021 -8.981749 -2.931939 -7.122430 -57.277680 36.306748 -25.523703 -34.528082 25.123333 -45.246397 6.900780 58.360148 -24.493448 -0.788478 -5.167729 -1.688141 1.909101 -3.914767 -10.287025 -0.766671 3.579452 1.898847 -0.080342 -0.013468 -0.009722 -0.680165 -6.778994 2.769438 0.524096 -1.306852 -0.296301 -1.078574 3.323588 -0.376643 0.169574 0.041897 0.009648 
9.761017 7.075920 83.146927 -4.773568 -1.361494 -106.101730 -0.892957 -3.632263 2.022020 -0.364869 -1.617810 0.896836 -0.364869 -1.617810 0.896839 -0.271259 -1.213896 0.671620 1.381213 -24.045848 1.054820 2.746625 -8.507795 2.243227 9.852714 3.543834 -6.470736 53.405454 33.289389 20.769579 38.467260 20.895384 40.989341 24.827502 18.211301 -13.847165 -8.975313 -2.692451 -7.077822 -56.785435 35.676568 -25.000898 -34.007252 23.742967 -44.621103 4.427533 56.403934 -24.212553 -0.788418 -5.223236 -1.774103 1.919163 -3.804583 -10.446314 -0.728157 3.566167 1.939580 -0.088922 -0.017153 -0.010544 -0.666888 -6.753646 2.637844 0.521013 -1.261349 -0.365059 -1.106551 3.266275 -0.389234 0.163794 0.040734 0.009951 
9.772366 7.083706 83.145569 -4.750548 -1.348603 -105.899460 -0.865462 -3.594582 1.980081 -0.352055 -1.601840 0.876796 -0.352055 -1.601840 0.876798 -0.261726 -1.201888 0.656631 1.588083 -24.083628 0.261304 2.916771 -8.560437 0.870377 9.775068 3.626096 -6.483861 53.494072 33.821321 20.693369 38.676595 21.680322 41.561151 24.908732 18.388934 -13.441881 -8.946016 -2.466341 -7.035565 -56.177117 35.024845 -24.373829 -33.512675 22.491922 -43.648163 0.912882 53.489083 -22.833396 -0.786348 -5.261842 -1.850364 1.930354 -3.739042 -10.604619 -0.693451 3.570602 1.968772 -0.090583 -0.017915 -0.010608 -0.652674 -6.719457 2.508546 0.522080 -1.241360 -0.449688 -1.128208 3.219536 -0.389638 0.153713 0.037911 0.011334 
9.780008 7.091194 83.144157 -4.737153 -1.336045 -105.694302 -0.828216 -3.563042 1.948205 -0.335983 -1.588253 0.861732 -0.335983 -1.588253 0.861733 -0.249732 -1.191666 0.645384 1.805129 -24.132751 -0.641659 3.077969 -8.634268 -0.696375 9.705588 3.668361 -6.478639 53.817936 34.487999 20.705321 38.945667 22.741052 42.232617 24.943327 18.763780 -12.707760 -8.911596 -2.319106 -7.005694 -55.459828 34.371851 -23.772451 -33.018914 21.566777 -42.390548 -4.328383 49.406286 -19.952513 -0.782626 -5.290485 -1.946779 1.937722 -3.708739 -10.730863 -0.667539 3.589503 1.981036 -0.084526 -0.017497 -0.009202 -0.639125 -6.683283 2.395850 0.521961 -1.240161 -0.551928 -1.142526 3.180396 -0.393810 0.140150 0.035164 0.011707 
